<?xml version="1.0" encoding="UTF-8"?>
<svg id="Layer_1" data-name="Layer 1" xmlns="http://www.w3.org/2000/svg" viewBox="0 0 50 50">
  <path d="M24.98,33.26c1.12,0,1.6-1.42,3.98-5.62,1.97-3.69,3.13-4.99,3.13-5.92,0-.74-.56-1.23-1.27-1.23-.48,0-1.41.26-1.86.26-.97,0-1.27-.74-1.27-2.31v-6.51c0-1.38-.63-1.93-2.72-1.93s-2.75.56-2.75,1.93v6.51c0,1.56-.3,2.31-1.23,2.31-.45,0-1.38-.26-1.86-.26-.71,0-1.27.48-1.27,1.23,0,.93,1.15,2.23,3.13,5.92,2.38,4.24,2.87,5.62,3.98,5.62Z"/>
  <path d="M34.19,37.43c0-1.23-.37-1.49-1.45-1.49h-15.52c-1.04,0-1.45.26-1.45,1.49v1.04c0,1.27.41,1.53,1.45,1.53h15.52c1.08,0,1.53-.26,1.49-1.53l-.04-1.04Z"/>
</svg>